<svg width="100" height="100" xmlns="http://www.w3.org/2000/svg">

 <g>
  <title>background</title>
  <rect fill="none" id="canvas_background" height="402" width="582" y="-1" x="-1"/>
 </g>
 <g>
  <title>Layer 1</title>
  <path stroke="#16160c" id="svg_2" fill="#37371c" d="m78.217,58.75l-5.4,0l0.002,-28.633c-6.82,-0.58 -14.65,-0.885 -22.818,-0.885s-15.997,0.305 -22.818,0.887l-0.001,28.629l-5.4,0l0.001,-33.541l2.436,-0.24c7.536,-0.742 16.452,-1.133 25.783,-1.133c9.332,0 18.248,0.391 25.783,1.133l2.436,0.24l-0.004,33.543z"/>
  <path stroke="#16160c" id="svg_3" fill="#37371c" d="m85.125,64.926c-0.156,-1.14 -1.618,-2.651 -2.735,-4.061c-1.339,-1.688 -4.062,-3.991 -5.893,-4.479l-52.993,0c-1.831,0.488 -4.553,2.79 -5.891,4.479c-1.116,1.408 -2.577,2.917 -2.737,4.057c-0.508,1.614 -0.55,3.444 0.013,5.345c0.597,2.017 1.754,3.783 3.188,5.153c2.73,0.468 16.649,0.746 31.924,0.746s29.194,-0.278 31.924,-0.746c1.433,-1.37 2.591,-3.137 3.188,-5.153c0.561,-1.899 0.519,-3.728 0.012,-5.341zm-31.385,6.83c-0.489,0.198 -2.495,0.316 -3.74,0.316c-1.245,0 -3.252,-0.118 -3.74,-0.316c-0.22,-0.571 -0.373,-1.29 -0.415,-2.086c-0.043,-0.813 0.036,-1.576 0.205,-2.203c0.498,-0.222 2.624,-0.356 3.95,-0.356c1.326,0 3.452,0.134 3.95,0.356c0.169,0.627 0.248,1.39 0.205,2.203c-0.041,0.796 -0.195,1.515 -0.415,2.086z"/>
 </g>
</svg>