<svg width="100" height="100" xmlns="http://www.w3.org/2000/svg">

 <g>
  <title>background</title>
  <rect fill="none" id="canvas_background" height="402" width="582" y="-1" x="-1"/>
 </g>
 <g>
  <title>Layer 1</title>
  <path id="svg_2" fill="#37371c" d="m14.589,62.104c-0.166,0 -0.338,-0.023 -0.506,-0.074c-0.955,-0.279 -1.502,-1.279 -1.221,-2.232c0.73,-2.492 2.662,-5.086 4.805,-6.455c2.395,-1.525 5.037,-2.016 7.434,-1.385c1.232,0.322 2.34,0.928 3.264,1.766l3.709,-20.471c0.178,-0.979 1.111,-1.635 2.092,-1.451c0.978,0.178 1.629,1.113 1.451,2.092l-4.703,25.961c-0.168,0.936 -1.047,1.574 -1.975,1.469c-0.943,-0.107 -1.641,-0.928 -1.596,-1.875c0.029,-0.605 -0.119,-1.217 -0.441,-1.82c-0.602,-1.123 -1.539,-1.879 -2.713,-2.188c-1.432,-0.377 -3.053,-0.037 -4.586,0.938c-1.393,0.891 -2.807,2.795 -3.287,4.432c-0.229,0.784 -0.948,1.293 -1.727,1.293z"/>
  <path id="svg_3" fill="#37371c" d="m69.907,75.739l-39.818,0c-6.213,0 -13.945,0 -17.764,-7.834c-1.322,-2.713 -1.582,-5.803 -0.728,-8.703l7.398,-27.611c0.74,-2.598 2.068,-4.42 4.187,-5.77c1.602,-1.021 3.471,-1.56 5.402,-1.56c3.309,0 6.209,1.582 7.572,4.127c0.42,0.787 0.684,1.727 0.834,2.658l26.014,0c0.15,-0.933 0.414,-1.871 0.834,-2.658c1.363,-2.545 4.264,-4.127 7.572,-4.127c1.932,0 3.801,0.539 5.402,1.559c2.123,1.353 3.449,3.176 4.178,5.734l7.426,27.707c0.836,2.844 0.574,5.934 -0.746,8.646c-3.817,7.832 -11.55,7.832 -17.763,7.832zm-41.322,-46.478c-0.978,0 -1.918,0.268 -2.715,0.777c-0.904,0.576 -1.602,1.287 -2.057,2.885l-7.404,27.631c-0.516,1.76 -0.363,3.57 0.41,5.16c2.096,4.301 5.787,5.025 13.27,5.025l39.818,0c7.483,0 11.174,-0.725 13.268,-5.023c0.775,-1.59 0.928,-3.404 0.43,-5.105l-7.432,-27.727c-0.445,-1.559 -1.141,-2.27 -2.047,-2.848c-1.971,-1.256 -5.068,-0.809 -5.877,0.711c-0.24,0.445 -0.451,1.565 -0.392,2.664l0.142,2.635l-36.002,0l0.143,-2.635c0.059,-1.1 -0.152,-2.219 -0.393,-2.664c-0.482,-0.904 -1.722,-1.486 -3.162,-1.486z"/>
  <path id="svg_4" fill="#37371c" d="m85.407,61.905c-0.779,0 -1.498,-0.51 -1.726,-1.295c-0.453,-1.545 -1.807,-3.287 -3.289,-4.232c-1.531,-0.977 -3.156,-1.313 -4.584,-0.938c-1.174,0.309 -2.111,1.064 -2.713,2.189c-0.32,0.6 -0.471,1.213 -0.441,1.822c0.043,0.947 -0.656,1.764 -1.598,1.871c-0.928,0.104 -1.803,-0.533 -1.973,-1.469l-4.703,-25.959c-0.178,-0.979 0.473,-1.914 1.451,-2.092c0.98,-0.182 1.914,0.473 2.092,1.451l3.709,20.471c0.924,-0.838 2.031,-1.443 3.264,-1.766c2.402,-0.631 5.043,-0.137 7.432,1.385c2.223,1.418 4.109,3.873 4.807,6.256c0.281,0.953 -0.266,1.953 -1.221,2.232c-0.169,0.051 -0.34,0.074 -0.507,0.074z"/>
 </g>
</svg>