<svg width="100" height="100" xmlns="http://www.w3.org/2000/svg">

 <g>
  <title>background</title>
  <rect fill="none" id="canvas_background" height="402" width="582" y="-1" x="-1"/>
 </g>
 <g>
  <title>Layer 1</title>
  <rect id="svg_2" y="66.479" x="35.653" width="5.847" transform="matrix(0.7071,0.7071,-0.7071,0.7071,59.7211,-7.2211) " height="4" fill="#37371c"/>
  <rect id="svg_3" y="59.727" x="42.833" width="7.914" transform="matrix(0.7071,0.7071,-0.7071,0.7071,57.3507,-15.0064) " height="4" fill="#37371c"/>
  <rect id="svg_4" y="51.515" x="50.619" width="5.847" transform="matrix(0.7072,0.707,-0.707,0.7072,53.5153,-22.1858) " height="3.999" fill="#37371c"/>
  <rect id="svg_5" y="44.764" x="57.798" width="7.914" transform="matrix(0.7071,0.7071,-0.7071,0.7071,51.1555,-29.9709) " height="3.999" fill="#37371c"/>
  <rect id="svg_6" y="36.55" x="65.583" width="5.847" transform="matrix(0.7072,0.707,-0.707,0.7072,47.3149,-37.1481) " height="3.999" fill="#37371c"/>
  <path id="svg_7" fill="#37371c" d="m37.557,80.518l-1.387,-0.199c-4.098,-0.587 -7.801,-2.435 -10.707,-5.342c-2.906,-2.906 -4.754,-6.608 -5.342,-10.705l-0.199,-1.387l4.498,-4.497c-7.301,-9.585 -6.533,-23.075 2.193,-31.803c4.58,-4.58 10.67,-7.104 17.148,-7.104c5.338,0 10.449,1.729 14.65,4.913l4.502,-4.5l1.387,0.199c4.094,0.587 7.797,2.434 10.705,5.341c2.906,2.908 4.752,6.61 5.34,10.706l0.199,1.387l-42.987,42.991zm-11.635,-15.713c0.58,2.359 1.775,4.486 3.502,6.212c1.725,1.727 3.852,2.922 6.211,3.501l38.91,-38.91c-0.58,-2.359 -1.773,-4.486 -3.5,-6.213c-1.726,-1.726 -3.853,-2.921 -6.213,-3.5l-6.213,6.213l-1.979,-1.881c-3.49,-3.317 -8.064,-5.145 -12.879,-5.145c-4.982,0 -9.666,1.94 -13.187,5.463c-7.217,7.216 -7.357,18.666 -0.32,26.067l1.881,1.98l-6.213,6.213z"/>
  <path id="svg_8" fill="#37371c" d="m37.115,37.088c-2.971,2.971 -2.971,7.787 0,10.758l10.758,-10.758c-2.971,-2.971 -7.787,-2.971 -10.758,0z"/>
 </g>
</svg>