<svg width="100" height="100" xmlns="http://www.w3.org/2000/svg">

 <g>
  <title>background</title>
  <rect fill="none" id="canvas_background" height="402" width="582" y="-1" x="-1"/>
 </g>
 <g>
  <title>Layer 1</title>
  <circle id="svg_2" r="2.455" fill="#474625" cy="70.645" cx="31.024"/>
  <path id="svg_3" fill="#474625" d="m47.538,59.7l-13.263,14.508c-1.824,1.824 -5.008,1.824 -6.832,0c-1.883,-1.883 -1.883,-4.947 -0.08,-6.752l16.364,-14.963l-3.539,-3.539l-16.28,14.889c-3.832,3.832 -3.832,10.068 0,13.9c1.857,1.857 4.326,2.879 6.951,2.879c2.625,0 5.094,-1.021 7.029,-2.959l13.042,-14.266l-3.392,-3.697z"/>
  <path id="svg_4" fill="#474625" d="m81.468,26.995l-1.574,-3.023l-9.029,9.029l-2.264,-2.266l9.027,-9.024l-3.051,-1.568c-2.176,-1.117 -4.588,-1.707 -6.977,-1.707c-3.721,0 -7.174,1.404 -9.725,3.955l-2.129,2.129c-3.479,3.479 -4.752,8.49 -3.496,13.402l-6.039,5.523l3.539,3.539l8.297,-7.587l-0.596,-1.582c-1.336,-3.555 -0.635,-7.295 1.83,-9.76l2.129,-2.129c1.607,-1.606 3.805,-2.49 6.189,-2.49c0.387,0 0.773,0.024 1.16,0.068l-7.23,7.231l9.334,9.336l7.274,-7.273c0.355,2.77 -0.481,5.51 -2.416,7.441l-2.125,2.129c-1.606,1.605 -3.803,2.49 -6.186,2.49c-1.209,0 -2.41,-0.223 -3.576,-0.66l-1.582,-0.596l-6.235,6.82l3.945,3.094l3.766,-4.12c1.209,0.305 2.441,0.461 3.68,0.461c0.002,0 0.002,0 0.002,0c3.719,0 7.172,-1.404 9.723,-3.955l2.125,-2.129c4.308,-4.301 5.196,-11.045 2.21,-16.778z"/>
  <polygon id="svg_5" points="46.853,58.446 29.691,41.286 24.199,40.065 16.779,26.022 23.023,19.778 37.066,27.198    38.287,32.69 56.021,50.425 52.861,52.921 34.634,34.694 33.562,29.87 23.765,24.692 21.693,26.765 26.871,36.562 31.695,37.634    49.734,55.672  " fill="#474625"/>
  <path id="svg_6" fill="#474625" d="m58.512,63.566c-0.416,0.2 -0.863,0.516 -1.277,0.931c-0.414,0.414 -0.731,0.861 -0.93,1.277l8.112,8.112c0.417,-0.2 0.863,-0.516 1.277,-0.931c0.415,-0.414 0.731,-0.861 0.931,-1.277l-8.113,-8.112z"/>
  <path id="svg_7" fill="#474625" d="m62.775,59.304c-0.417,0.2 -0.863,0.516 -1.277,0.93c-0.414,0.414 -0.731,0.861 -0.93,1.277l8.112,8.112c0.417,-0.2 0.863,-0.516 1.277,-0.93c0.414,-0.415 0.731,-0.861 0.93,-1.277l-8.112,-8.112z"/>
  <path id="svg_8" fill="#474625" d="m77.667,64.042l-12.119,-12.119c-0.576,-0.576 -1.373,-0.895 -2.242,-0.895c-0.182,0 -0.396,0.012 -0.65,0.053c-0.137,-0.254 -0.315,-0.492 -0.533,-0.713l-2.875,-2.873c-0.529,-0.529 -1.254,-0.82 -2.043,-0.82c-2.924,0 -7.662,4.654 -8.193,5.186c-3.4,3.398 -6.941,7.961 -4.516,10.387l2.873,2.873c0.211,0.211 0.451,0.385 0.713,0.522c-0.172,1.012 -0.016,2.049 0.842,2.906l12.119,12.119c0.578,0.578 1.377,0.896 2.25,0.896c3.008,0 7.508,-4.176 9.301,-5.971c1.875,-1.875 3.488,-3.824 4.543,-5.488c0.63,-1.001 2.554,-4.04 0.53,-6.063zm-8.609,8.016c-2.394,2.395 -4.303,3.721 -5.303,4.252l-10.463,-10.463c0.137,-0.26 0.338,-0.603 0.633,-1.043l1.148,-1.707l-3.389,-3.389l-1.66,0.957c-0.01,0.006 -0.018,0.01 -0.025,0.016l-0.957,-0.957c0.586,-0.98 1.777,-2.602 3.504,-4.328c1.656,-1.656 3.219,-2.799 4.168,-3.363l0.967,0.965c-0.006,0.01 -0.01,0.018 -0.016,0.027l-0.957,1.66l3.389,3.389l1.707,-1.148c0.443,-0.297 0.789,-0.5 1.039,-0.637l10.467,10.466c-0.531,0.998 -1.858,2.908 -4.252,5.303z"/>
 </g>
</svg>